<?xml version="1.0" encoding="UTF-8"?>
<svg id="Livello_2" data-name="Livello 2" xmlns="http://www.w3.org/2000/svg" viewBox="0 0 595.28 841.89">
  <defs>
    <style>
      .cls-1 {
        fill: #7fffaf;
      }

      .cls-2 {
        letter-spacing: -.05em;
      }

      .cls-3 {
        letter-spacing: 0em;
      }

      .cls-4, .cls-5 {
        letter-spacing: -.01em;
      }

      .cls-6, .cls-7 {
        fill: #fff;
      }

      .cls-8 {
        letter-spacing: 0em;
      }

      .cls-9, .cls-7, .cls-10 {
        font-size: 19.48px;
      }

      .cls-9, .cls-7, .cls-10, .cls-11, .cls-12, .cls-13 {
        font-family: MyriadPro-Regular, 'Myriad Pro';
      }

      .cls-14 {
        letter-spacing: -.01em;
      }

      .cls-15 {
        letter-spacing: 0em;
      }

      .cls-16 {
        letter-spacing: 0em;
      }

      .cls-17 {
        letter-spacing: 0em;
      }

      .cls-18 {
        letter-spacing: 0em;
      }

      .cls-19 {
        letter-spacing: -.04em;
      }

      .cls-20, .cls-21, .cls-22, .cls-23, .cls-24, .cls-5, .cls-25, .cls-26, .cls-27 {
        fill: #f6ff79;
      }

      .cls-28 {
        letter-spacing: 0em;
      }

      .cls-29 {
        fill: #d1d375;
      }

      .cls-30, .cls-31, .cls-32, .cls-33, .cls-34, .cls-35 {
        fill: none;
        stroke-miterlimit: 10;
      }

      .cls-30, .cls-32, .cls-34, .cls-35 {
        stroke-width: 2px;
      }

      .cls-30, .cls-33 {
        stroke: #00bf48;
      }

      .cls-21, .cls-36 {
        letter-spacing: 0em;
      }

      .cls-37 {
        fill: #ffe0a8;
      }

      .cls-38 {
        letter-spacing: -.01em;
      }

      .cls-39 {
        letter-spacing: 0em;
      }

      .cls-40 {
        letter-spacing: -.02em;
      }

      .cls-31, .cls-34 {
        stroke: #d1d375;
      }

      .cls-41 {
        letter-spacing: 0em;
      }

      .cls-42 {
        letter-spacing: 0em;
      }

      .cls-43 {
        fill: #f7ff8b;
      }

      .cls-44 {
        letter-spacing: 0em;
      }

      .cls-22 {
        letter-spacing: 0em;
      }

      .cls-45, .cls-27 {
        letter-spacing: 0em;
      }

      .cls-46, .cls-23 {
        letter-spacing: 0em;
      }

      .cls-47 {
        fill: #bfc5f7;
      }

      .cls-48 {
        fill: #8df0ff;
      }

      .cls-49 {
        letter-spacing: -.01em;
      }

      .cls-50 {
        letter-spacing: 0em;
      }

      .cls-10 {
        fill: #c58800;
      }

      .cls-51 {
        fill: #00bf48;
      }

      .cls-52 {
        letter-spacing: .01em;
      }

      .cls-53, .cls-26 {
        letter-spacing: 0em;
      }

      .cls-11 {
        font-size: 7.26px;
      }

      .cls-54 {
        letter-spacing: 0em;
      }

      .cls-55 {
        fill: #6869ff;
      }

      .cls-12 {
        font-size: 17.96px;
      }

      .cls-32 {
        stroke: #ffe0a8;
      }

      .cls-56, .cls-25 {
        letter-spacing: 0em;
      }

      .cls-57 {
        letter-spacing: 0em;
      }

      .cls-58 {
        fill: #fbffca;
      }

      .cls-59 {
        fill: #82d19e;
      }

      .cls-24 {
        letter-spacing: -.01em;
      }

      .cls-60 {
        fill: #67ce8c;
      }

      .cls-61 {
        letter-spacing: .01em;
      }

      .cls-62 {
        letter-spacing: .02em;
      }

      .cls-63 {
        letter-spacing: -.01em;
      }

      .cls-64 {
        letter-spacing: 0em;
      }

      .cls-65 {
        letter-spacing: 0em;
      }

      .cls-13 {
        font-size: 12.49px;
      }

      .cls-66 {
        letter-spacing: 0em;
      }

      .cls-67 {
        fill: #90d3b1;
      }

      .cls-35 {
        stroke: #8df0ff;
      }

      .cls-68 {
        letter-spacing: -.01em;
      }

      .cls-69 {
        letter-spacing: 0em;
      }
    </style>
  </defs>
  <g id="Livello_3" data-name="Livello 3">
    <rect class="cls-6" width="595.28" height="841.89"/>
    <g>
      <g id="MAIN">
        <rect class="cls-47" x="219.81" y="31.62" width="155.66" height="208.78"/>
        <g id="MAIN-2" data-name="MAIN">
          <rect class="cls-55" x="237.36" y="48.35" width="109.02" height="37.83"/>
          <text class="cls-7" transform="translate(257.32 73.78)"><tspan class="cls-41" x="0" y="0">M</tspan><tspan x="15.47" y="0">AIN.</tspan><tspan class="cls-17" x="48.89" y="0">T</tspan><tspan class="cls-18" x="58.45" y="0">S</tspan></text>
        </g>
        <g id="useRouter">
          <rect class="cls-59" x="233.25" y="192.11" width="104.75" height="17.69"/>
          <g>
            <path d="M239.64,202.52v-4.38h1.2v4.22c0,1.32,.46,1.96,1.63,1.96,.81,0,1.41-.38,2.19-1.29v-4.89h1.2v7.05h-1l-.1-1.23h-.06c-.71,.83-1.54,1.41-2.63,1.41-1.67,0-2.44-.99-2.44-2.84Z"/>
            <path d="M248.26,204.26l.55-.8c.81,.58,1.77,.96,3.06,.96,1.19,0,1.77-.49,1.77-1.09,0-.54-.28-.91-2.19-1.31-1.84-.38-2.76-1-2.76-2.06,0-1.13,1-2,2.93-2,1.07,0,2.15,.42,2.84,.9l-.58,.77c-.65-.45-1.46-.74-2.37-.74-1.19,0-1.62,.48-1.62,1.02,0,.61,.61,.87,2.06,1.18,2.34,.51,2.9,1.09,2.9,2.18,0,1.15-1.12,2.1-3.13,2.1-1.38,0-2.61-.51-3.47-1.1Z"/>
            <path d="M256.93,201.65c0-2.29,1.71-3.69,3.6-3.69,2.03,0,3.22,1.32,3.22,3.31,0,.28-.03,.54-.06,.73h-5.96v-.93h5.25l-.3,.33c0-1.67-.83-2.5-2.12-2.5s-2.44,.99-2.44,2.74,1.19,2.76,2.76,2.76c.84,0,1.51-.26,2.15-.67l.44,.78c-.7,.46-1.6,.84-2.73,.84-2.12,0-3.8-1.36-3.8-3.71Z"/>
            <path d="M267.67,201.16c0-2.8,1.23-5.02,3.25-6.59l.67,.61c-1.94,1.64-2.84,3.54-2.84,5.98s.9,4.34,2.84,5.98l-.67,.61c-2.02-1.57-3.25-3.79-3.25-6.59Z"/>
            <path d="M275.47,198.14h1l.12,1.67h.03c.74-1.15,1.84-1.84,3.15-1.84,.52,0,.96,.07,1.39,.29l-.28,1.03c-.49-.16-.75-.23-1.31-.23-1.06,0-2.06,.54-2.9,2.02v4.12h-1.2v-7.05Z"/>
            <path d="M282.94,201.68c0-2.37,1.62-3.71,3.48-3.71s3.48,1.35,3.48,3.71-1.62,3.69-3.48,3.69-3.48-1.35-3.48-3.69Zm5.73,0c0-1.62-.9-2.71-2.25-2.71s-2.25,1.09-2.25,2.71,.9,2.68,2.25,2.68,2.25-1.07,2.25-2.68Z"/>
            <path d="M291.9,202.52v-4.38h1.21v4.22c0,1.32,.46,1.96,1.62,1.96,.81,0,1.41-.38,2.19-1.29v-4.89h1.2v7.05h-1l-.1-1.23h-.06c-.71,.83-1.54,1.41-2.63,1.41-1.67,0-2.44-.99-2.44-2.84Z"/>
            <path d="M302.48,202.45v-3.34h-2v-.9l2.05-.07,.16-2.26h1v2.26h3.45v.97h-3.45v3.35c0,1.26,.42,1.92,1.79,1.92,.65,0,1.18-.13,1.68-.32l.26,.89c-.64,.23-1.32,.42-2.21,.42-2.06,0-2.73-1.18-2.73-2.92Z"/>
            <path d="M309.19,201.65c0-2.29,1.71-3.69,3.6-3.69,2.03,0,3.22,1.32,3.22,3.31,0,.28-.03,.54-.06,.73h-5.96v-.93h5.25l-.3,.33c0-1.67-.83-2.5-2.12-2.5s-2.44,.99-2.44,2.74,1.19,2.76,2.76,2.76c.84,0,1.51-.26,2.15-.67l.44,.78c-.7,.46-1.6,.84-2.73,.84-2.12,0-3.8-1.36-3.8-3.71Z"/>
            <path d="M319.01,198.14h1l.12,1.67h.03c.74-1.15,1.84-1.84,3.15-1.84,.52,0,.96,.07,1.39,.29l-.28,1.03c-.49-.16-.75-.23-1.31-.23-1.06,0-2.06,.54-2.9,2.02v4.12h-1.2v-7.05Z"/>
            <path d="M327.39,207.14c1.94-1.64,2.84-3.54,2.84-5.98s-.9-4.34-2.84-5.98l.67-.61c2.02,1.57,3.25,3.79,3.25,6.59s-1.23,5.02-3.25,6.59l-.67-.61Z"/>
          </g>
        </g>
        <g id="createApp">
          <rect class="cls-48" x="233.25" y="105.13" width="129.46" height="17.69"/>
          <g>
            <path d="M238.53,113.76c0-2.37,1.8-3.71,3.93-3.71,1.15,0,1.99,.46,2.57,1.03l-.59,.77c-.58-.49-1.19-.8-1.93-.8-1.62,0-2.74,1.09-2.74,2.71s1.1,2.68,2.71,2.68c.87,0,1.6-.39,2.18-.89l.54,.78c-.78,.7-1.76,1.1-2.8,1.1-2.21,0-3.86-1.35-3.86-3.69Z"/>
            <path d="M248.18,110.22h1l.12,1.67h.03c.74-1.15,1.84-1.84,3.15-1.84,.52,0,.96,.07,1.39,.29l-.28,1.03c-.49-.16-.75-.23-1.31-.23-1.06,0-2.06,.54-2.9,2.02v4.12h-1.2v-7.05Z"/>
            <path d="M255.77,113.73c0-2.29,1.71-3.69,3.6-3.69,2.03,0,3.22,1.32,3.22,3.31,0,.28-.03,.54-.06,.73h-5.96v-.93h5.25l-.3,.33c0-1.67-.83-2.5-2.12-2.5s-2.44,.99-2.44,2.74,1.19,2.76,2.76,2.76c.84,0,1.51-.26,2.15-.67l.44,.78c-.7,.46-1.6,.84-2.73,.84-2.12,0-3.8-1.36-3.8-3.71Z"/>
            <path d="M264.65,115.44c0-1.58,1.48-2.35,5.12-2.64-.04-.96-.51-1.77-1.87-1.77-.91,0-1.81,.44-2.47,.84l-.48-.81c.73-.46,1.92-1.02,3.15-1.02,1.93,0,2.87,1.15,2.87,2.9v4.32h-1l-.1-.96h-.04c-.77,.61-1.79,1.13-2.77,1.13-1.32,0-2.41-.74-2.41-2Zm5.12-.01v-1.83c-3.02,.23-3.93,.83-3.93,1.76,0,.8,.73,1.12,1.54,1.12s1.58-.38,2.39-1.04Z"/>
            <path d="M275.19,114.53v-3.34h-2v-.9l2.05-.07,.16-2.26h1v2.26h3.45v.97h-3.45v3.35c0,1.26,.42,1.92,1.79,1.92,.65,0,1.18-.13,1.68-.32l.26,.89c-.64,.23-1.32,.42-2.21,.42-2.06,0-2.73-1.18-2.73-2.92Z"/>
            <path d="M281.9,113.73c0-2.29,1.71-3.69,3.6-3.69,2.03,0,3.22,1.32,3.22,3.31,0,.28-.03,.54-.06,.73h-5.96v-.93h5.25l-.3,.33c0-1.67-.83-2.5-2.12-2.5s-2.44,.99-2.44,2.74,1.19,2.76,2.76,2.76c.84,0,1.51-.26,2.15-.67l.44,.78c-.7,.46-1.6,.84-2.73,.84-2.12,0-3.8-1.36-3.8-3.71Z"/>
            <path d="M293.28,107.75h1.39l3.21,9.52h-1.31l-1.64-5.31c-.33-1.06-.65-2.1-.94-3.21h-.06c-.3,1.1-.61,2.15-.94,3.21l-1.67,5.31h-1.25l3.21-9.52Zm-1.51,5.65h4.37v.99h-4.37v-.99Z"/>
            <path d="M299.68,110.22h.99l.1,.9h.04c.65-.62,1.58-1.07,2.44-1.07,1.9,0,2.92,1.41,2.92,3.6,0,2.39-1.51,3.8-3.21,3.8-.65,0-1.47-.33-2.1-.91h-.03l.06,1.33v2.38h-1.2v-10.03Zm5.25,3.42c0-1.55-.58-2.58-1.99-2.58-.62,0-1.35,.32-2.06,1.04v3.51c.65,.6,1.39,.81,1.87,.81,1.25,0,2.18-1.04,2.18-2.79Z"/>
            <path d="M308.39,110.22h.99l.1,.9h.04c.65-.62,1.58-1.07,2.44-1.07,1.9,0,2.92,1.41,2.92,3.6,0,2.39-1.51,3.8-3.21,3.8-.65,0-1.47-.33-2.1-.91h-.03l.06,1.33v2.38h-1.2v-10.03Zm5.25,3.42c0-1.55-.58-2.58-1.99-2.58-.62,0-1.35,.32-2.06,1.04v3.51c.65,.6,1.39,.81,1.87,.81,1.25,0,2.18-1.04,2.18-2.79Z"/>
            <path d="M318.77,113.24c0-2.8,1.23-5.02,3.25-6.59l.67,.61c-1.94,1.64-2.84,3.54-2.84,5.98s.9,4.34,2.84,5.98l-.67,.61c-2.02-1.57-3.25-3.79-3.25-6.59Z"/>
            <path d="M328.12,107.75h1.39l3.21,9.52h-1.31l-1.64-5.31c-.33-1.06-.65-2.1-.94-3.21h-.06c-.3,1.1-.61,2.15-.94,3.21l-1.67,5.31h-1.25l3.21-9.52Zm-1.51,5.65h4.37v.99h-4.37v-.99Z"/>
            <path d="M334.52,110.22h.99l.1,.9h.04c.65-.62,1.58-1.07,2.44-1.07,1.9,0,2.92,1.41,2.92,3.6,0,2.39-1.51,3.8-3.21,3.8-.65,0-1.47-.33-2.1-.91h-.03l.06,1.33v2.38h-1.2v-10.03Zm5.25,3.42c0-1.55-.58-2.58-1.99-2.58-.62,0-1.35,.32-2.06,1.04v3.51c.65,.6,1.39,.81,1.87,.81,1.25,0,2.18-1.04,2.18-2.79Z"/>
            <path d="M343.23,110.22h.99l.1,.9h.04c.65-.62,1.58-1.07,2.44-1.07,1.9,0,2.92,1.41,2.92,3.6,0,2.39-1.51,3.8-3.21,3.8-.65,0-1.47-.33-2.1-.91h-.03l.06,1.33v2.38h-1.2v-10.03Zm5.25,3.42c0-1.55-.58-2.58-1.99-2.58-.62,0-1.35,.32-2.06,1.04v3.51c.65,.6,1.39,.81,1.87,.81,1.25,0,2.18-1.04,2.18-2.79Z"/>
            <path d="M352.36,119.22c1.94-1.64,2.84-3.54,2.84-5.98s-.9-4.34-2.84-5.98l.67-.61c2.02,1.57,3.25,3.79,3.25,6.59s-1.23,5.02-3.25,6.59l-.67-.61Z"/>
          </g>
        </g>
        <g id="useVuetify">
          <rect id="useVuetify-2" data-name="useVuetify" class="cls-37" x="233.25" y="132.69" width="113.14" height="17.69"/>
          <g>
            <path d="M239.64,143.25v-4.38h1.2v4.22c0,1.32,.46,1.96,1.63,1.96,.81,0,1.41-.38,2.19-1.29v-4.89h1.2v7.05h-1l-.1-1.23h-.06c-.71,.83-1.54,1.41-2.63,1.41-1.67,0-2.44-.99-2.44-2.84Z"/>
            <path d="M248.26,144.99l.55-.8c.81,.58,1.77,.96,3.06,.96,1.19,0,1.77-.49,1.77-1.09,0-.54-.28-.91-2.19-1.31-1.84-.38-2.76-1-2.76-2.06,0-1.13,1-2,2.93-2,1.07,0,2.15,.42,2.84,.9l-.58,.77c-.65-.45-1.46-.74-2.37-.74-1.19,0-1.62,.48-1.62,1.02,0,.61,.61,.87,2.06,1.18,2.34,.51,2.9,1.09,2.9,2.18,0,1.15-1.12,2.1-3.13,2.1-1.38,0-2.61-.51-3.47-1.1Z"/>
            <path d="M256.93,142.38c0-2.29,1.71-3.69,3.6-3.69,2.03,0,3.22,1.32,3.22,3.31,0,.28-.03,.54-.06,.73h-5.96v-.93h5.25l-.3,.33c0-1.67-.83-2.5-2.12-2.5s-2.44,.99-2.44,2.74,1.19,2.76,2.76,2.76c.84,0,1.51-.26,2.15-.67l.44,.78c-.7,.46-1.6,.84-2.73,.84-2.12,0-3.8-1.36-3.8-3.71Z"/>
            <path d="M267.67,141.88c0-2.8,1.23-5.02,3.25-6.59l.67,.61c-1.94,1.64-2.84,3.54-2.84,5.98s.9,4.34,2.84,5.98l-.67,.61c-2.02-1.57-3.25-3.79-3.25-6.59Z"/>
            <path d="M274.09,138.87h1.23l1.62,3.99c.28,.71,.54,1.41,.78,2.09h.06c.25-.68,.48-1.38,.77-2.09l1.62-3.99h1.16l-2.93,7.05h-1.35l-2.97-7.05Z"/>
            <path d="M283.19,143.25v-4.38h1.2v4.22c0,1.32,.46,1.96,1.63,1.96,.81,0,1.41-.38,2.19-1.29v-4.89h1.2v7.05h-1l-.1-1.23h-.06c-.71,.83-1.54,1.41-2.63,1.41-1.67,0-2.44-.99-2.44-2.84Z"/>
            <path d="M291.77,142.38c0-2.29,1.71-3.69,3.6-3.69,2.03,0,3.22,1.32,3.22,3.31,0,.28-.03,.54-.06,.73h-5.96v-.93h5.25l-.3,.33c0-1.67-.83-2.5-2.12-2.5s-2.44,.99-2.44,2.74,1.19,2.76,2.76,2.76c.84,0,1.51-.26,2.15-.67l.44,.78c-.7,.46-1.6,.84-2.73,.84-2.12,0-3.8-1.36-3.8-3.71Z"/>
            <path d="M302.48,143.17v-3.34h-2v-.9l2.05-.07,.16-2.26h1v2.26h3.45v.97h-3.45v3.35c0,1.26,.42,1.92,1.79,1.92,.65,0,1.18-.13,1.68-.32l.26,.89c-.64,.23-1.32,.42-2.21,.42-2.06,0-2.73-1.18-2.73-2.92Z"/>
            <path d="M312.77,139.84h-3.27v-.97h4.47v7.05h-1.2v-6.08Zm-.48-3.38c0-.55,.41-.93,.96-.93s.96,.38,.96,.93-.41,.93-.96,.93-.96-.36-.96-.93Z"/>
            <path d="M318.41,138.94l2.05-.07h4.11v.97h-6.15v-.9Zm2.02-.67c0-1.71,.9-2.86,2.84-2.86,.7,0,1.36,.13,2.03,.41l-.28,.9c-.58-.25-1.03-.33-1.64-.33-1.26,0-1.77,.71-1.77,1.84v7.69h-1.19v-7.65Z"/>
            <path d="M326.59,148.81l.25-.96c.19,.06,.42,.1,.64,.1,.99,0,1.58-.62,1.93-1.49l.2-.52-3.28-7.07h1.22l1.71,3.89c.28,.62,.58,1.36,.87,2.05h.06c.25-.67,.52-1.41,.75-2.05l1.52-3.89h1.16l-3.12,7.63c-.52,1.39-1.38,2.45-2.99,2.45-.33,0-.68-.06-.93-.15Z"/>
            <path d="M336.1,147.86c1.94-1.64,2.84-3.54,2.84-5.98s-.9-4.34-2.84-5.98l.67-.61c2.02,1.57,3.25,3.79,3.25,6.59s-1.23,5.02-3.25,6.59l-.67-.61Z"/>
          </g>
        </g>
        <g id="usePinia">
          <rect class="cls-43" x="233.25" y="163.86" width="104.75" height="17.69"/>
          <g>
            <path d="M239.64,174.15v-4.38h1.2v4.22c0,1.32,.46,1.96,1.63,1.96,.81,0,1.41-.38,2.19-1.29v-4.89h1.2v7.05h-1l-.1-1.23h-.06c-.71,.83-1.54,1.41-2.63,1.41-1.67,0-2.44-.99-2.44-2.84Z"/>
            <path d="M248.26,175.89l.55-.8c.81,.58,1.77,.96,3.06,.96,1.19,0,1.77-.49,1.77-1.09,0-.54-.28-.91-2.19-1.31-1.84-.38-2.76-1-2.76-2.06,0-1.13,1-2,2.93-2,1.07,0,2.15,.42,2.84,.9l-.58,.77c-.65-.45-1.46-.74-2.37-.74-1.19,0-1.62,.48-1.62,1.02,0,.61,.61,.87,2.06,1.18,2.34,.51,2.9,1.09,2.9,2.18,0,1.15-1.12,2.1-3.13,2.1-1.38,0-2.61-.51-3.47-1.1Z"/>
            <path d="M256.93,173.28c0-2.29,1.71-3.69,3.6-3.69,2.03,0,3.22,1.32,3.22,3.31,0,.28-.03,.54-.06,.73h-5.96v-.93h5.25l-.3,.33c0-1.67-.83-2.5-2.12-2.5s-2.44,.99-2.44,2.74,1.19,2.76,2.76,2.76c.84,0,1.51-.26,2.15-.67l.44,.78c-.7,.46-1.6,.84-2.73,.84-2.12,0-3.8-1.36-3.8-3.71Z"/>
            <path d="M267.67,172.78c0-2.8,1.23-5.02,3.25-6.59l.67,.61c-1.94,1.64-2.84,3.54-2.84,5.98s.9,4.34,2.84,5.98l-.67,.61c-2.02-1.57-3.25-3.79-3.25-6.59Z"/>
            <path d="M274.71,169.76h.99l.1,.9h.04c.65-.62,1.58-1.07,2.44-1.07,1.9,0,2.92,1.41,2.92,3.6,0,2.39-1.51,3.8-3.21,3.8-.65,0-1.47-.33-2.1-.91h-.03l.06,1.33v2.38h-1.2v-10.03Zm5.25,3.42c0-1.55-.58-2.58-1.99-2.58-.62,0-1.35,.32-2.06,1.04v3.51c.65,.6,1.39,.81,1.87,.81,1.25,0,2.18-1.04,2.18-2.79Z"/>
            <path d="M286.64,170.74h-3.27v-.97h4.47v7.05h-1.2v-6.08Zm-.48-3.38c0-.55,.41-.93,.96-.93s.96,.38,.96,.93-.41,.93-.96,.93-.96-.36-.96-.93Z"/>
            <path d="M292.13,169.76h.99l.1,1.19h.06c.74-.77,1.55-1.36,2.66-1.36,1.67,0,2.44,.99,2.44,2.84v4.38h-1.2v-4.22c0-1.33-.46-1.96-1.61-1.96-.84,0-1.41,.42-2.22,1.26v4.92h-1.2v-7.05Z"/>
            <path d="M304.06,170.74h-3.27v-.97h4.47v7.05h-1.2v-6.08Zm-.48-3.38c0-.55,.41-.93,.96-.93s.96,.38,.96,.93-.41,.93-.96,.93-.96-.36-.96-.93Z"/>
            <path d="M309.36,174.99c0-1.58,1.48-2.35,5.12-2.64-.04-.96-.51-1.77-1.87-1.77-.91,0-1.81,.44-2.47,.84l-.48-.81c.73-.46,1.92-1.02,3.15-1.02,1.93,0,2.87,1.15,2.87,2.9v4.32h-1l-.1-.96h-.04c-.77,.61-1.79,1.13-2.77,1.13-1.32,0-2.41-.74-2.41-2Zm5.12-.01v-1.83c-3.02,.23-3.93,.83-3.93,1.76,0,.8,.73,1.12,1.54,1.12s1.58-.38,2.39-1.04Z"/>
            <path d="M318.68,178.76c1.94-1.64,2.84-3.54,2.84-5.98s-.9-4.34-2.84-5.98l.67-.61c2.02,1.57,3.25,3.79,3.25,6.59s-1.23,5.02-3.25,6.59l-.67-.61Z"/>
          </g>
        </g>
      </g>
      <g>
        <rect class="cls-60" x="196.95" y="323.04" width="189.85" height="71"/>
        <text class="cls-11" transform="translate(204.68 333.24)"><tspan class="cls-56" x="0" y="0">r</tspan><tspan x="2.3" y="0">ou</tspan><tspan class="cls-53" x="10.28" y="0">t</tspan><tspan x="12.64" y="0">e</tspan><tspan class="cls-2" x="16.28" y="0">r</tspan><tspan x="18.27" y="0">.be</tspan><tspan class="cls-38" x="27.54" y="0">f</tspan><tspan x="29.56" y="0">o</tspan><tspan class="cls-56" x="33.55" y="0">r</tspan><tspan x="35.85" y="0">eEach((</tspan><tspan class="cls-45" x="57.95" y="0">t</tspan><tspan class="cls-40" x="60.31" y="0">o</tspan><tspan class="cls-36" x="64.12" y="0">, f</tspan><tspan class="cls-56" x="69.28" y="0">r</tspan><tspan class="cls-36" x="71.58" y="0">om, n</tspan><tspan class="cls-46" x="88.69" y="0">e</tspan><tspan class="cls-61" x="92.31" y="0">x</tspan><tspan x="95.76" y="0">t) =&gt; {</tspan><tspan x="0" y="8.71" xml:space="preserve">    </tspan><tspan class="cls-45" x="6.15" y="8.71">c</tspan><tspan x="9.36" y="8.71">onst auth</tspan><tspan class="cls-46" x="38.12" y="8.71">S</tspan><tspan class="cls-45" x="41.67" y="8.71">t</tspan><tspan x="44.03" y="8.71">o</tspan><tspan class="cls-56" x="48.02" y="8.71">r</tspan><tspan class="cls-36" x="50.32" y="8.71">e = use</tspan><tspan class="cls-4" x="71.87" y="8.71">A</tspan><tspan x="76.22" y="8.71">uth</tspan><tspan class="cls-46" x="86.65" y="8.71">S</tspan><tspan class="cls-45" x="90.21" y="8.71">t</tspan><tspan class="cls-36" x="92.57" y="8.71">o</tspan><tspan class="cls-56" x="96.55" y="8.71">r</tspan><tspan x="98.85" y="8.71">e()</tspan><tspan x="0" y="17.42" xml:space="preserve">    </tspan><tspan x="0" y="26.13" xml:space="preserve">    if (</tspan><tspan class="cls-45" x="13.57" y="26.13">t</tspan><tspan class="cls-40" x="15.93" y="26.13">o</tspan><tspan x="19.74" y="26.13">.p</tspan><tspan class="cls-16" x="25.37" y="26.13">a</tspan><tspan x="28.84" y="26.13">th !== &apos;/lo</tspan><tspan class="cls-53" x="58.22" y="26.13">g</tspan><tspan x="62.24" y="26.13">i</tspan><tspan class="cls-57" x="63.93" y="26.13">n</tspan><tspan x="67.91" y="26.13">&apos; &amp;&amp; !</tspan><tspan class="cls-21" x="82.8" y="26.13">auth</tspan><tspan class="cls-22" x="96.73" y="26.13">S</tspan><tspan class="cls-26" x="100.29" y="26.13">t</tspan><tspan class="cls-20" x="102.65" y="26.13">o</tspan><tspan class="cls-25" x="106.63" y="26.13">r</tspan><tspan class="cls-5" x="108.93" y="26.13">e</tspan><tspan class="cls-36" x="112.48" y="26.13">.is</tspan><tspan class="cls-4" x="118.56" y="26.13">A</tspan><tspan x="122.91" y="26.13">uth) n</tspan><tspan class="cls-46" x="140.97" y="26.13">e</tspan><tspan class="cls-52" x="144.58" y="26.13">x</tspan><tspan x="148.04" y="26.13">t(&apos;/lo</tspan><tspan class="cls-53" x="162.05" y="26.13">g</tspan><tspan x="166.07" y="26.13">i</tspan><tspan class="cls-57" x="167.76" y="26.13">n</tspan><tspan x="171.74" y="26.13">&apos;)</tspan><tspan x="0" y="34.84" xml:space="preserve">    else if (</tspan><tspan class="cls-45" x="26.97" y="34.84">t</tspan><tspan class="cls-40" x="29.33" y="34.84">o</tspan><tspan class="cls-36" x="33.14" y="34.84">.p</tspan><tspan class="cls-16" x="38.77" y="34.84">a</tspan><tspan x="42.24" y="34.84">th === &apos;/lo</tspan><tspan class="cls-53" x="74.28" y="34.84">g</tspan><tspan x="78.29" y="34.84">i</tspan><tspan class="cls-57" x="79.99" y="34.84">n</tspan><tspan x="83.97" y="34.84">&apos; &amp;&amp; </tspan><tspan class="cls-20" x="97.19" y="34.84">auth</tspan><tspan class="cls-23" x="111.12" y="34.84">S</tspan><tspan class="cls-27" x="114.67" y="34.84">t</tspan><tspan class="cls-20" x="117.03" y="34.84">o</tspan><tspan class="cls-25" x="121.02" y="34.84">r</tspan><tspan class="cls-24" x="123.32" y="34.84">e</tspan><tspan x="126.87" y="34.84">.is</tspan><tspan class="cls-4" x="132.94" y="34.84">A</tspan><tspan x="137.3" y="34.84">uth) n</tspan><tspan class="cls-46" x="155.35" y="34.84">e</tspan><tspan class="cls-52" x="158.97" y="34.84">x</tspan><tspan x="162.42" y="34.84">t(&apos;/&apos;)</tspan><tspan x="0" y="43.55" xml:space="preserve">    else n</tspan><tspan class="cls-3" x="23.58" y="43.55">e</tspan><tspan class="cls-61" x="27.2" y="43.55">x</tspan><tspan x="30.65" y="43.55">t()</tspan><tspan x="0" y="52.26">})</tspan></text>
      </g>
      <g>
        <rect class="cls-51" x="237.36" y="262.8" width="109.02" height="37.83"/>
        <text class="cls-7" transform="translate(257.32 288.23)"><tspan class="cls-69" x="0" y="0">R</tspan><tspan class="cls-8" x="10.54" y="0">OUTER</tspan></text>
      </g>
      <g>
        <rect class="cls-48" x="12.52" y="93.32" width="109.02" height="37.83"/>
        <text class="cls-7" transform="translate(49.88 118.75)"><tspan x="0" y="0">APP</tspan></text>
      </g>
      <g>
        <rect class="cls-37" x="473.74" y="48.35" width="109.02" height="37.83"/>
        <text class="cls-10" transform="translate(495.66 73.78)"><tspan x="0" y="0">VU</tspan><tspan class="cls-62" x="23.47" y="0">E</tspan><tspan x="33.37" y="0">TIFY</tspan></text>
      </g>
      <g>
        <rect class="cls-43" x="473.74" y="153.79" width="109.02" height="37.83"/>
        <text class="cls-9" transform="translate(506.15 179.22)"><tspan x="0" y="0">PINIA</tspan></text>
      </g>
      <g>
        <line class="cls-35" x1="128.39" y1="113" x2="213.51" y2="113"/>
        <polygon class="cls-48" points="227.63 113 207.73 121.13 212.46 113 207.73 104.87 227.63 113"/>
      </g>
      <g>
        <line class="cls-32" x1="370.4" y1="142.22" x2="484.39" y2="142.22"/>
        <polygon class="cls-37" points="356.28 142.22 376.17 150.35 371.45 142.22 376.17 134.09 356.28 142.22"/>
      </g>
      <line class="cls-32" x1="484.39" y1="142.22" x2="484.39" y2="91.95"/>
      <g>
        <line class="cls-32" x1="463.59" y1="172.7" x2="360.5" y2="172.7"/>
        <polygon class="cls-37" points="346.38 172.7 366.28 164.57 361.56 172.7 366.28 180.83 346.38 172.7"/>
      </g>
      <g>
        <line class="cls-30" x1="289.81" y1="259.76" x2="289.81" y2="229.82"/>
        <polygon class="cls-51" points="289.81 215.7 297.94 235.6 289.81 230.88 281.68 235.6 289.81 215.7"/>
      </g>
      <g>
        <path class="cls-51" d="M28.42,140.89v-.57l3.3-2.23v.71l-2.66,1.79v.04l2.66,1.79v.71l-3.3-2.23Z"/>
        <path class="cls-51" d="M33.96,139.24h.61l.07,1.02h.02c.45-.7,1.12-1.12,1.92-1.12,.32,0,.58,.04,.85,.18l-.17,.63c-.3-.1-.46-.14-.8-.14-.65,0-1.26,.33-1.77,1.23v2.51h-.73v-4.3Z"/>
        <path class="cls-51" d="M38.52,141.4c0-1.44,.99-2.27,2.12-2.27s2.12,.82,2.12,2.27-.99,2.25-2.12,2.25-2.12-.82-2.12-2.25Zm3.5,0c0-.99-.55-1.66-1.37-1.66s-1.37,.66-1.37,1.66,.55,1.64,1.37,1.64,1.37-.65,1.37-1.64Z"/>
        <path class="cls-51" d="M43.98,141.92v-2.67h.73v2.58c0,.81,.28,1.19,.99,1.19,.5,0,.86-.23,1.34-.79v-2.98h.74v4.3h-.61l-.06-.75h-.04c-.43,.5-.94,.86-1.6,.86-1.02,0-1.49-.6-1.49-1.73Z"/>
        <path class="cls-51" d="M50.44,141.87v-2.04h-1.22v-.55l1.25-.04,.1-1.38h.61v1.38h2.11v.59h-2.11v2.04c0,.77,.26,1.17,1.09,1.17,.4,0,.72-.08,1.03-.19l.16,.54c-.39,.14-.81,.26-1.34,.26-1.26,0-1.66-.72-1.66-1.78Z"/>
        <path class="cls-51" d="M54.53,141.39c0-1.4,1.04-2.25,2.2-2.25,1.24,0,1.96,.81,1.96,2.02,0,.17-.02,.33-.04,.44h-3.64v-.57h3.2l-.19,.2c0-1.02-.5-1.52-1.29-1.52s-1.49,.6-1.49,1.67,.73,1.68,1.68,1.68c.51,0,.92-.16,1.31-.41l.27,.48c-.42,.28-.97,.51-1.66,.51-1.29,0-2.32-.83-2.32-2.27Z"/>
        <path class="cls-51" d="M60.52,139.24h.61l.07,1.02h.02c.45-.7,1.12-1.12,1.92-1.12,.32,0,.58,.04,.85,.18l-.17,.63c-.3-.1-.46-.14-.8-.14-.65,0-1.26,.33-1.77,1.23v2.51h-.73v-4.3Z"/>
        <path class="cls-51" d="M65.3,140.35h3.81v.55h-3.81v-.55Z"/>
        <path class="cls-51" d="M70.31,139.24h.75l.99,2.43c.17,.43,.33,.86,.48,1.27h.04c.15-.42,.29-.84,.47-1.27l.99-2.43h.71l-1.79,4.3h-.82l-1.81-4.3Z"/>
        <path class="cls-51" d="M77.97,139.84h-1.99v-.59h2.73v4.3h-.73v-3.71Zm-.29-2.06c0-.34,.25-.57,.58-.57s.58,.23,.58,.57-.25,.57-.58,.57-.58-.22-.58-.57Z"/>
        <path class="cls-51" d="M81.09,141.39c0-1.4,1.04-2.25,2.2-2.25,1.24,0,1.96,.81,1.96,2.02,0,.17-.02,.33-.04,.44h-3.64v-.57h3.2l-.19,.2c0-1.02-.5-1.52-1.29-1.52s-1.49,.6-1.49,1.67,.73,1.68,1.68,1.68c.51,0,.92-.16,1.31-.41l.26,.48c-.42,.28-.97,.51-1.66,.51-1.29,0-2.32-.83-2.32-2.27Z"/>
        <path class="cls-51" d="M85.87,139.24h.73l.51,2.5c.08,.41,.14,.78,.2,1.19h.04c.05-.41,.15-.79,.25-1.19l.53-2.23h.73l.51,2.23c.1,.41,.21,.78,.27,1.19h.04c.07-.41,.12-.78,.2-1.19l.51-2.5h.67l-.92,4.3h-.94l-.5-2.05c-.07-.3-.14-.73-.21-1.27h-.04c-.07,.55-.14,.97-.21,1.27l-.48,2.05h-.94l-.94-4.3Z"/>
        <path class="cls-51" d="M92.06,142.41l2.65-1.79v-.04l-2.65-1.79v-.71l3.3,2.23v.57l-3.3,2.23v-.71Z"/>
      </g>
      <line class="cls-30" x1="227.63" y1="200.96" x2="212.81" y2="200.96"/>
      <line class="cls-30" x1="212.81" y1="200.96" x2="212.81" y2="141.54"/>
      <g>
        <line class="cls-30" x1="212.81" y1="141.54" x2="118.63" y2="141.54"/>
        <polygon class="cls-51" points="104.5 141.54 124.4 133.41 119.68 141.54 124.4 149.67 104.5 141.54"/>
      </g>
      <g>
        <line class="cls-30" x1="213.51" y1="282.99" x2="62.91" y2="282.99"/>
        <polygon class="cls-51" points="227.63 282.99 207.73 274.86 212.46 282.99 207.73 291.12 227.63 282.99"/>
      </g>
      <line class="cls-30" x1="62.91" y1="282.99" x2="62.91" y2="148.95"/>
      <g>
        <rect class="cls-67" x="276.8" y="431.14" width="109.02" height="37.83"/>
        <text class="cls-7" transform="translate(303.67 456.57)"><tspan class="cls-19" x="0" y="0">L</tspan><tspan class="cls-8" x="8.43" y="0">OGIN</tspan></text>
      </g>
      <g>
        <rect class="cls-67" x="196.13" y="487.63" width="109.02" height="37.83"/>
        <text class="cls-7" transform="translate(222.99 513.06)"><tspan x="0" y="0">INDEX</tspan></text>
      </g>
      <g>
        <line class="cls-30" x1="331.31" y1="399.01" x2="331.31" y2="408.41"/>
        <polygon class="cls-51" points="331.31 422.53 323.18 402.63 331.31 407.35 339.44 402.63 331.31 422.53"/>
      </g>
      <g>
        <line class="cls-30" x1="250.64" y1="399.01" x2="250.64" y2="465.04"/>
        <polygon class="cls-51" points="250.64 479.16 242.51 459.26 250.64 463.98 258.77 459.26 250.64 479.16"/>
      </g>
      <g id="Login">
        <rect class="cls-1" x="107.45" y="731.35" width="102.4" height="32.29"/>
        <text id="Login-2" data-name="Login" class="cls-12" transform="translate(114.04 753.39)"><tspan x="0" y="0">&lt;Sidebar /&gt;</tspan></text>
      </g>
      <g id="Login-3" data-name="Login">
        <rect class="cls-1" x="107.45" y="679.01" width="102.4" height="32.29"/>
        <text id="Login-4" data-name="Login" class="cls-12" transform="translate(128.1 701.05)"><tspan x="0" y="0">&lt;</tspan><tspan class="cls-39" x="10.7" y="0">C</tspan><tspan class="cls-64" x="21" y="0">a</tspan><tspan class="cls-49" x="29.65" y="0">r</tspan><tspan x="35.35" y="0">d /&gt;</tspan></text>
      </g>
      <g id="Login-5" data-name="Login">
        <rect class="cls-1" x="107.45" y="626.67" width="102.4" height="32.29"/>
        <text id="Login-6" data-name="Login" class="cls-12" transform="translate(119.89 648.69)"><tspan x="0" y="0">&lt;But</tspan><tspan class="cls-54" x="36.28" y="0">t</tspan><tspan x="42.12" y="0">on /&gt;</tspan></text>
      </g>
      <g id="Login-7" data-name="Login">
        <rect class="cls-1" x="101.11" y="574.85" width="115.09" height="32.29"/>
        <text id="Login-8" data-name="Login" class="cls-12" transform="translate(107.45 597.07)"><tspan x="0" y="0">&lt;</tspan><tspan class="cls-68" x="10.7" y="0">A</tspan><tspan x="21.48" y="0">dd</tspan><tspan class="cls-28" x="41.74" y="0">M</tspan><tspan x="56.29" y="0">enu /&gt;</tspan></text>
      </g>
      <line class="cls-30" x1="178.01" y1="506.55" x2="62.91" y2="506.55"/>
      <line class="cls-30" x1="62.91" y1="506.55" x2="62.91" y2="747.49"/>
      <g>
        <line class="cls-30" x1="62.91" y1="747.49" x2="81.24" y2="747.49"/>
        <polygon class="cls-51" points="95.37 747.49 75.47 755.62 80.19 747.49 75.47 739.36 95.37 747.49"/>
      </g>
      <g>
        <line class="cls-30" x1="62.91" y1="695.15" x2="81.24" y2="695.15"/>
        <polygon class="cls-51" points="95.37 695.15 75.47 703.28 80.19 695.15 75.47 687.02 95.37 695.15"/>
      </g>
      <g>
        <line class="cls-30" x1="62.91" y1="642.81" x2="81.24" y2="642.81"/>
        <polygon class="cls-51" points="95.37 642.81 75.47 650.95 80.19 642.81 75.47 634.69 95.37 642.81"/>
      </g>
      <g>
        <rect class="cls-58" x="452.16" y="344.65" width="72.5" height="22.42"/>
        <text class="cls-13" transform="translate(463.5 361.06)"><tspan x="0" y="0">auth</tspan><tspan class="cls-66" x="23.98" y="0">S</tspan><tspan class="cls-44" x="30.1" y="0">t</tspan><tspan x="34.16" y="0">o</tspan><tspan class="cls-63" x="41.02" y="0">r</tspan><tspan x="44.98" y="0">e</tspan></text>
      </g>
      <g>
        <rect class="cls-58" x="452.16" y="625.18" width="92.15" height="22.42"/>
        <text class="cls-13" transform="translate(463.5 641.58)"><tspan x="0" y="0">add</tspan><tspan class="cls-65" x="20.12" y="0">E</tspan><tspan x="26.21" y="0">dit</tspan><tspan class="cls-66" x="40.32" y="0">S</tspan><tspan class="cls-44" x="46.44" y="0">t</tspan><tspan x="50.5" y="0">o</tspan><tspan class="cls-14" x="57.36" y="0">r</tspan><tspan x="61.32" y="0">e</tspan></text>
      </g>
      <g>
        <rect class="cls-58" x="452.16" y="658.96" width="79.95" height="22.42"/>
        <text class="cls-13" transform="translate(463.5 675.37)"><tspan class="cls-44" x="0" y="0">t</tspan><tspan x="4.06" y="0">odos</tspan><tspan class="cls-66" x="29.77" y="0">S</tspan><tspan class="cls-44" x="35.9" y="0">t</tspan><tspan x="39.96" y="0">o</tspan><tspan class="cls-14" x="46.82" y="0">r</tspan><tspan x="50.78" y="0">e</tspan></text>
      </g>
      <g>
        <rect class="cls-58" x="452.16" y="692.74" width="102.27" height="22.42"/>
        <text class="cls-13" transform="translate(463.5 709.15)"><tspan x="0" y="0">c</tspan><tspan class="cls-50" x="5.6" y="0">a</tspan><tspan class="cls-44" x="11.57" y="0">t</tspan><tspan x="15.63" y="0">ego</tspan><tspan class="cls-42" x="35.73" y="0">r</tspan><tspan x="39.87" y="0">ies</tspan><tspan class="cls-66" x="54" y="0">S</tspan><tspan class="cls-44" x="60.12" y="0">t</tspan><tspan x="64.18" y="0">o</tspan><tspan class="cls-63" x="71.04" y="0">r</tspan><tspan class="cls-15" x="75" y="0">e</tspan></text>
      </g>
      <path d="M97.01,646.43h3.11v-7.92h-2.42v-.91c1.27-.17,2.08-.42,2.78-.79h1.05v9.63h2.81v1.17h-7.33v-1.17Z"/>
      <path d="M92.62,596.62h3.11v-7.92h-2.42v-.91c1.27-.17,2.08-.42,2.78-.79h1.05v9.63h2.81v1.17h-7.33v-1.17Z"/>
      <path d="M98.65,749.6h3.11v-7.92h-2.42v-.91c1.27-.17,2.08-.42,2.78-.79h1.05v9.63h2.81v1.17h-7.33v-1.17Z"/>
      <path d="M96.94,692.36h1.15l.12,1.39h.07c.86-.9,1.81-1.59,3.1-1.59,1.95,0,2.84,1.15,2.84,3.32v5.11h-1.41v-4.92c0-1.56-.54-2.29-1.88-2.29-.98,0-1.64,.49-2.59,1.47v5.74h-1.4v-8.22Z"/>
      <g>
        <line class="cls-33" x1="201.17" y1="610.18" x2="201.17" y2="614.16"/>
        <polygon class="cls-51" points="201.17 621.22 197.1 611.27 201.17 613.63 205.23 611.27 201.17 621.22"/>
      </g>
      <line class="cls-33" x1="218.48" y1="603.46" x2="226.64" y2="603.46"/>
      <line class="cls-33" x1="226.64" y1="603.46" x2="226.64" y2="688.3"/>
      <g>
        <line class="cls-33" x1="226.64" y1="688.3" x2="223.26" y2="688.3"/>
        <polygon class="cls-51" points="216.2 688.3 226.15 684.24 223.79 688.3 226.15 692.37 216.2 688.3"/>
      </g>
      <line class="cls-34" x1="488.41" y1="722.57" x2="488.41" y2="747.49"/>
      <g>
        <line class="cls-34" x1="488.41" y1="747.49" x2="223.26" y2="747.49"/>
        <polygon class="cls-29" points="216.2 747.49 226.15 743.43 223.79 747.49 226.15 751.56 216.2 747.49"/>
      </g>
      <line class="cls-34" x1="442.61" y1="636.39" x2="354.1" y2="636.39"/>
      <line class="cls-34" x1="354.1" y1="636.39" x2="354.1" y2="579.71"/>
      <g>
        <line class="cls-34" x1="354.1" y1="579.71" x2="233.7" y2="579.71"/>
        <polygon class="cls-29" points="226.64 579.71 236.59 575.64 234.22 579.71 236.59 583.77 226.64 579.71"/>
      </g>
      <line class="cls-34" x1="442.61" y1="670.17" x2="336.06" y2="670.17"/>
      <line class="cls-34" x1="336.06" y1="670.17" x2="336.06" y2="591"/>
      <g>
        <line class="cls-34" x1="336.06" y1="591" x2="233.7" y2="591"/>
        <polygon class="cls-29" points="226.64 591 236.59 586.93 234.22 591 236.59 595.06 226.64 591"/>
      </g>
      <g>
        <line class="cls-31" x1="498.24" y1="647.59" x2="498.24" y2="655.43"/>
        <polygon class="cls-29" points="498.24 658.96 496.2 653.98 498.24 655.17 500.27 653.98 498.24 658.96"/>
      </g>
      <g>
        <line class="cls-31" x1="503.3" y1="681.38" x2="503.3" y2="689.21"/>
        <polygon class="cls-29" points="503.3 692.74 501.26 687.77 503.3 688.95 505.33 687.77 503.3 692.74"/>
      </g>
      <g>
        <line class="cls-31" x1="498.24" y1="692.74" x2="498.24" y2="684.91"/>
        <polygon class="cls-29" points="498.24 681.38 500.27 686.35 498.24 685.17 496.2 686.35 498.24 681.38"/>
      </g>
      <g>
        <line class="cls-33" x1="289.81" y1="303.51" x2="289.81" y2="313.72"/>
        <polygon class="cls-51" points="289.81 320.78 285.75 310.83 289.81 313.19 293.88 310.83 289.81 320.78"/>
      </g>
      <g>
        <line class="cls-32" x1="495.66" y1="198.14" x2="495.66" y2="327.83"/>
        <polygon class="cls-37" points="495.66 341.95 487.53 322.05 495.66 326.78 503.79 322.05 495.66 341.95"/>
      </g>
      <line class="cls-32" x1="574.35" y1="198.14" x2="574.35" y2="703.95"/>
      <polygon class="cls-37" points="559.23 703.95 579.13 695.82 574.41 703.95 579.13 712.08 559.23 703.95"/>
      <g>
        <line class="cls-32" x1="574.35" y1="636.39" x2="563.99" y2="636.39"/>
        <polygon class="cls-37" points="549.87 636.39 569.77 628.26 565.05 636.39 569.77 644.51 549.87 636.39"/>
      </g>
      <g>
        <line class="cls-32" x1="574.35" y1="668.61" x2="554.27" y2="668.61"/>
        <polygon class="cls-37" points="540.15 668.61 560.05 660.48 555.33 668.61 560.05 676.74 540.15 668.61"/>
      </g>
      <g>
        <line class="cls-32" x1="442.61" y1="355.01" x2="412.47" y2="355.01"/>
        <polygon class="cls-37" points="398.35 355.01 418.25 346.88 413.53 355.01 418.25 363.14 398.35 355.01"/>
      </g>
      <line class="cls-32" x1="495.66" y1="376.79" x2="495.66" y2="450.06"/>
      <g>
        <line class="cls-32" x1="495.66" y1="450.06" x2="412.47" y2="450.06"/>
        <polygon class="cls-37" points="398.35 450.06 418.25 441.93 413.53 450.06 418.25 458.19 398.35 450.06"/>
      </g>
    </g>
  </g>
</svg>